<svg id="svg" version="1.1" xmlns="http://www.w3.org/2000/svg" xmlns:xlink="http://www.w3.org/1999/xlink" width="400" height="400" viewBox="0, 0, 400,400"><g id="svgg"><path id="path0" d="M214.400 102.635 C 199.916 104.189,187.168 109.773,174.797 119.982 C 168.428 125.239,119.337 174.244,117.879 176.800 C 112.610 186.041,120.794 195.337,130.200 190.794 C 131.768 190.037,137.942 184.120,158.800 163.384 C 173.430 148.839,186.750 135.854,188.400 134.527 C 224.695 105.349,277.782 130.340,277.772 176.600 C 277.769 190.879,273.967 201.254,264.581 212.600 C 259.971 218.173,191.682 286.208,188.400 288.498 C 166.162 304.014,136.434 292.520,131.035 266.317 C 128.338 253.226,132.893 241.656,145.508 229.555 C 147.890 227.270,162.160 213.499,177.220 198.953 C 208.104 169.121,208.356 168.891,212.200 166.996 C 223.197 161.578,236.151 168.816,236.140 180.372 C 236.134 186.656,234.168 189.471,221.257 201.682 C 173.084 247.243,174.089 246.262,172.644 249.113 C 170.014 254.303,171.607 259.737,176.470 262.160 C 181.528 264.680,185.208 263.294,193.012 255.930 C 244.262 207.565,246.995 204.909,250.008 200.551 C 258.347 188.488,258.551 173.656,250.549 161.292 C 240.499 145.765,219.557 140.363,202.863 148.990 C 197.790 151.612,194.531 154.407,178.800 169.620 C 170.990 177.174,156.500 191.185,146.600 200.756 C 119.425 227.030,116.459 230.858,112.633 244.600 C 98.508 295.340,157.748 336.291,199.762 304.828 C 207.262 299.212,271.618 235.355,280.011 225.203 C 286.588 217.246,290.910 209.796,293.633 201.719 C 311.539 148.603,270.012 96.671,214.400 102.635 " stroke="none" fill-rule="evenodd"></path></g></svg>