<svg id="svg" version="1.1" xmlns="http://www.w3.org/2000/svg" xmlns:xlink="http://www.w3.org/1999/xlink" width="400" height="400" viewBox="0, 0, 400,400"><g id="svgg"><path id="path0" d="M35.655 41.588 C 27.219 45.520,25.869 52.516,30.250 69.600 C 31.237 73.450,32.586 79.750,33.247 83.600 C 33.908 87.450,35.231 93.660,36.186 97.400 C 37.141 101.140,38.214 106.090,38.571 108.400 C 39.535 114.653,40.329 118.447,41.835 124.000 C 42.581 126.750,43.738 132.240,44.407 136.200 C 45.077 140.160,46.327 146.100,47.187 149.400 C 48.046 152.700,49.301 158.640,49.975 162.600 C 52.859 179.542,58.546 184.100,78.400 185.382 C 80.490 185.518,84.630 185.795,87.600 185.999 C 90.570 186.202,96.780 186.564,101.400 186.803 C 106.020 187.042,112.500 187.488,115.800 187.794 C 119.100 188.100,125.400 188.639,129.800 188.990 C 134.200 189.342,140.320 189.896,143.400 190.222 C 146.480 190.548,153.410 191.078,158.800 191.401 C 178.114 192.556,182.260 192.830,186.400 193.221 C 188.710 193.440,192.760 193.794,195.400 194.008 C 215.926 195.674,217.802 196.208,218.629 200.613 C 219.907 207.425,215.923 208.334,181.000 209.204 C 173.080 209.401,165.610 209.738,164.400 209.952 C 163.190 210.166,157.430 210.358,151.600 210.379 C 145.309 210.401,138.805 210.653,135.600 211.000 C 132.444 211.341,125.879 211.601,119.800 211.626 C 114.080 211.649,108.320 211.837,107.000 212.044 C 105.680 212.251,97.580 212.579,89.000 212.771 C 66.813 213.269,65.627 213.525,58.302 219.388 C 52.260 224.223,51.462 225.797,49.811 236.117 C 49.255 239.592,48.083 245.264,47.207 248.723 C 46.331 252.181,44.993 258.698,44.234 263.205 C 43.475 267.712,42.138 274.190,41.264 277.600 C 40.390 281.010,39.284 286.410,38.806 289.600 C 38.329 292.790,37.137 298.640,36.157 302.600 C 35.178 306.560,33.918 312.680,33.356 316.200 C 32.795 319.720,31.541 325.785,30.569 329.678 C 25.850 348.587,26.937 355.331,35.385 359.550 C 40.986 362.347,42.842 361.880,60.600 353.205 C 63.240 351.915,68.730 349.311,72.800 347.418 C 76.870 345.526,82.180 343.007,84.600 341.822 C 87.020 340.637,91.430 338.505,94.400 337.085 C 99.457 334.667,106.910 331.071,118.200 325.599 C 124.873 322.366,131.613 319.145,141.200 314.609 C 149.983 310.453,157.530 306.839,164.600 303.404 C 167.020 302.229,171.430 300.103,174.400 298.682 C 177.370 297.260,183.220 294.433,187.400 292.401 C 191.580 290.368,197.430 287.540,200.400 286.116 C 203.370 284.692,207.780 282.567,210.200 281.395 C 212.620 280.222,217.030 278.102,220.000 276.684 C 237.832 268.171,251.689 261.563,259.400 257.897 C 264.240 255.595,277.200 249.389,288.200 244.105 C 299.200 238.822,316.390 230.585,326.400 225.800 C 336.410 221.016,345.519 216.494,346.643 215.750 C 356.228 209.406,358.003 198.436,350.546 191.621 C 346.835 188.229,348.359 189.007,289.800 160.591 C 279.680 155.680,270.500 151.203,269.400 150.641 C 267.133 149.483,255.426 143.804,237.800 135.311 C 231.200 132.131,222.200 127.768,217.800 125.614 C 192.533 113.248,168.049 101.311,156.400 95.680 C 153.210 94.138,146.460 90.859,141.400 88.394 C 136.340 85.929,128.870 82.301,124.800 80.332 C 120.730 78.363,115.690 75.880,113.600 74.813 C 111.510 73.747,108.720 72.424,107.400 71.873 C 106.080 71.322,103.830 70.210,102.400 69.400 C 100.970 68.590,98.746 67.484,97.459 66.942 C 96.171 66.399,90.321 63.610,84.459 60.744 C 78.596 57.878,70.830 54.101,67.200 52.351 C 63.570 50.600,58.890 48.292,56.800 47.221 C 45.793 41.584,39.348 39.867,35.655 41.588 " stroke="none" fill="#168acd" fill-rule="evenodd"></path></g></svg>